<?xml version="1.0" encoding="UTF-8"?>
<svg width="560px" height="139px" viewBox="0 0 560 139" version="1.1" xmlns="http://www.w3.org/2000/svg" xmlns:xlink="http://www.w3.org/1999/xlink">
    <title>Poplar-Logo-Orange-RGBvector</title>
    <g id="Page-1" stroke="none" stroke-width="1" fill="none" fill-rule="evenodd">
        <g id="Poplar-Logo-Orange-RGB" transform="translate(0.000000, 0.000000)" fill="#FF7300">
            <path d="M45.29,1.51568447 L-3.55271368e-14,1.51568447 L-3.55271368e-14,110.525684 L21.029,110.525684 L21.029,74.9626845 L45.29,74.9626845 C52.712,74.9626845 59.334,73.4156845 65.16,70.3236845 C70.982,67.2316845 75.519,62.9016845 78.767,57.3356845 C82.014,51.7686845 83.637,45.3786845 83.637,38.1616845 C83.637,30.9476845 82.014,24.5806845 78.767,19.0656845 C75.519,13.5526845 70.982,9.24668447 65.16,6.15468447 C59.334,3.06168447 52.712,1.51568447 45.29,1.51568447 L45.29,1.51568447 Z M44.208,55.4796845 L21.029,55.4796845 L21.029,21.1526845 L44.208,21.1526845 C49.156,21.1526845 53.254,22.7516845 56.5,25.9466845 C59.748,29.1426845 61.371,33.2136845 61.371,38.1616845 C61.371,43.2136845 59.748,47.3616845 56.5,50.6096845 C53.254,53.8566845 49.156,55.4796845 44.208,55.4796845 L44.208,55.4796845 Z M124.459,112.072684 C132.395,112.072684 139.586,110.425684 146.029,107.124684 C152.47,103.826684 157.522,99.1876845 161.183,93.2086845 C164.84,87.2306845 166.672,80.3746845 166.672,72.6426845 C166.672,64.9116845 164.84,58.0576845 161.183,52.0776845 C157.522,46.1006845 152.47,41.4616845 146.029,38.1616845 C139.586,34.8636845 132.395,33.2136845 124.459,33.2136845 C116.418,33.2136845 109.175,34.8636845 102.734,38.1616845 C96.291,41.4616845 91.215,46.1006845 87.503,52.0776845 C83.792,58.0576845 81.937,64.9116845 81.937,72.6426845 C81.937,80.3746845 83.792,87.2306845 87.503,93.2086845 C91.215,99.1876845 96.291,103.826684 102.734,107.124684 C109.175,110.425684 116.418,112.072684 124.459,112.072684 L124.459,112.072684 Z M124.459,93.2086845 C118.375,93.2086845 113.403,91.2746845 109.538,87.4096845 C105.672,83.5446845 103.739,78.5726845 103.739,72.4886845 C103.739,66.5116845 105.672,61.6136845 109.538,57.7986845 C113.403,53.9866845 118.375,52.0776845 124.459,52.0776845 C130.335,52.0776845 135.206,53.9866845 139.071,57.7986845 C142.936,61.6136845 144.869,66.5116845 144.869,72.4886845 C144.869,78.5726845 142.961,83.5446845 139.148,87.4096845 C135.333,91.2746845 130.436,93.2086845 124.459,93.2086845 L124.459,93.2086845 Z M224.347,33.2136845 C216.925,33.2136845 210.431,35.7146845 204.864,40.7126845 C199.297,45.7146845 195.533,52.3366845 193.577,60.5826845 L193.577,34.7596845 L173.321,34.7596845 L173.321,138.358684 L193.577,138.358684 L193.577,84.7036845 C195.533,92.9516845 199.297,99.5746845 204.864,104.572684 C210.431,109.574684 216.925,112.072684 224.347,112.072684 C230.324,112.072684 235.763,110.347684 240.66,106.891684 C245.554,103.439684 249.42,98.7236845 252.256,92.7446845 C255.091,86.7666845 256.509,80.0656845 256.509,72.6426845 C256.509,65.2216845 255.091,58.5216845 252.256,52.5416845 C249.42,46.5646845 245.554,41.8486845 240.66,38.3936845 C235.763,34.9416845 230.324,33.2136845 224.347,33.2136845 L224.347,33.2136845 Z M214.296,93.2086845 C208.42,93.2086845 203.497,91.2516845 199.53,87.3326845 C195.56,83.4166845 193.577,78.5186845 193.577,72.6426845 C193.577,66.8716845 195.56,62.0006845 199.53,58.0316845 C203.497,54.0636845 208.42,52.0776845 214.296,52.0776845 C220.068,52.0776845 224.912,54.0636845 228.831,58.0316845 C232.748,62.0006845 234.707,66.8716845 234.707,72.6426845 C234.707,78.5186845 232.748,83.4166845 228.831,87.3326845 C224.912,91.2516845 220.068,93.2086845 214.296,93.2086845 L214.296,93.2086845 Z M263.311,110.525684 L283.566,110.525684 L283.566,1.51568447 L263.311,1.51568447 L263.311,110.525684 Z M353.3,34.7596845 L353.3,59.9636845 C351.238,51.9236845 347.449,45.4556845 341.936,40.5576845 C336.42,35.6636845 330.002,33.2136845 322.685,33.2136845 C316.706,33.2136845 311.267,34.9416845 306.372,38.3936845 C301.475,41.8486845 297.609,46.5646845 294.775,52.5416845 C291.939,58.5216845 290.523,65.2216845 290.523,72.6426845 C290.523,80.0656845 291.939,86.7666845 294.775,92.7446845 C297.609,98.7236845 301.475,103.439684 306.372,106.891684 C311.267,110.347684 316.706,112.072684 322.685,112.072684 C330.002,112.072684 336.42,109.625684 341.936,104.727684 C347.449,99.8326845 351.238,93.3626845 353.3,85.3226845 L353.3,110.525684 L373.711,110.525684 L373.711,34.7596845 L353.3,34.7596845 Z M332.736,93.2086845 C326.86,93.2086845 321.989,91.2516845 318.123,87.3326845 C314.258,83.4166845 312.325,78.5186845 312.325,72.6426845 C312.325,66.7666845 314.258,61.8726845 318.123,57.9536845 C321.989,54.0366845 326.86,52.0776845 332.736,52.0776845 C338.612,52.0776845 343.506,54.0636845 347.425,58.0316845 C351.341,62.0006845 353.3,66.8716845 353.3,72.6426845 C353.3,78.5186845 351.341,83.4166845 347.425,87.3326845 C343.506,91.2516845 338.612,93.2086845 332.736,93.2086845 L332.736,93.2086845 Z M406.335,59.6546845 L406.335,34.7596845 L386.08,34.7596845 L386.08,110.525684 L406.335,110.525684 L406.335,72.6426845 C406.335,67.0766845 407.906,63.0326845 411.051,60.5046845 C414.195,57.9806845 418.447,56.7166845 423.808,56.7166845 L433.24,56.7166845 L433.24,33.2136845 C426.436,33.2136845 420.715,35.7146845 416.077,40.7126845 C411.438,45.7146845 408.191,52.0276845 406.335,59.6546845 L406.335,59.6546845 Z" id="Fill-1"></path>
            <path d="M496.7768,2.83358447 L448.6788,50.8165845 C446.8538,52.6375845 445.8288,55.1085845 445.8288,57.6865845 L445.8288,110.614584 L559.5608,110.614584 L559.5608,43.9895845 C559.5608,40.9175845 558.1058,38.0265845 555.6378,36.1965845 L509.4098,1.90958447 C505.5508,-0.952415534 500.1778,-0.559415534 496.7768,2.83358447" id="Fill-3"></path>
        </g>
    </g>
</svg>